<mxfile host="app.diagrams.net" agent="Mozilla/5.0 (Windows NT 10.0; Win64; x64) AppleWebKit/537.36 (KHTML, like Gecko) Chrome/141.0.0.0 Safari/537.36" version="28.2.5">
  <diagram name="Página-1" id="z0kumTkfgIMJB3LU8zHn">
    <mxGraphModel dx="1665" dy="825" grid="1" gridSize="10" guides="1" tooltips="1" connect="1" arrows="1" fold="1" page="1" pageScale="1" pageWidth="1654" pageHeight="2336" math="0" shadow="0">
      <root>
        <mxCell id="0" />
        <mxCell id="1" parent="0" />
        <mxCell id="rROXHpLpStxra00sK2MU-6" style="edgeStyle=orthogonalEdgeStyle;rounded=0;orthogonalLoop=1;jettySize=auto;html=1;exitX=0.5;exitY=1;exitDx=0;exitDy=0;entryX=0.5;entryY=0;entryDx=0;entryDy=0;" edge="1" parent="1" source="rROXHpLpStxra00sK2MU-1" target="rROXHpLpStxra00sK2MU-2">
          <mxGeometry relative="1" as="geometry" />
        </mxCell>
        <mxCell id="rROXHpLpStxra00sK2MU-7" style="edgeStyle=orthogonalEdgeStyle;rounded=0;orthogonalLoop=1;jettySize=auto;html=1;exitX=0.75;exitY=1;exitDx=0;exitDy=0;entryX=0.5;entryY=0;entryDx=0;entryDy=0;" edge="1" parent="1" source="rROXHpLpStxra00sK2MU-1" target="rROXHpLpStxra00sK2MU-3">
          <mxGeometry relative="1" as="geometry" />
        </mxCell>
        <mxCell id="rROXHpLpStxra00sK2MU-8" style="edgeStyle=orthogonalEdgeStyle;rounded=0;orthogonalLoop=1;jettySize=auto;html=1;exitX=0.25;exitY=1;exitDx=0;exitDy=0;entryX=0.5;entryY=0;entryDx=0;entryDy=0;" edge="1" parent="1" source="rROXHpLpStxra00sK2MU-1" target="rROXHpLpStxra00sK2MU-5">
          <mxGeometry relative="1" as="geometry" />
        </mxCell>
        <mxCell id="rROXHpLpStxra00sK2MU-1" value="Gerente comercial" style="rounded=0;whiteSpace=wrap;html=1;" vertex="1" parent="1">
          <mxGeometry x="640" y="160" width="420" height="60" as="geometry" />
        </mxCell>
        <mxCell id="rROXHpLpStxra00sK2MU-11" style="edgeStyle=orthogonalEdgeStyle;rounded=0;orthogonalLoop=1;jettySize=auto;html=1;exitX=0.5;exitY=1;exitDx=0;exitDy=0;entryX=0;entryY=0.5;entryDx=0;entryDy=0;" edge="1" parent="1" source="rROXHpLpStxra00sK2MU-2" target="rROXHpLpStxra00sK2MU-4">
          <mxGeometry relative="1" as="geometry" />
        </mxCell>
        <mxCell id="rROXHpLpStxra00sK2MU-2" value="Coordinadora de mercadeo" style="rounded=0;whiteSpace=wrap;html=1;" vertex="1" parent="1">
          <mxGeometry x="780" y="280" width="140" height="60" as="geometry" />
        </mxCell>
        <mxCell id="rROXHpLpStxra00sK2MU-9" style="edgeStyle=orthogonalEdgeStyle;rounded=0;orthogonalLoop=1;jettySize=auto;html=1;exitX=0.5;exitY=1;exitDx=0;exitDy=0;entryX=1;entryY=0.5;entryDx=0;entryDy=0;" edge="1" parent="1" source="rROXHpLpStxra00sK2MU-3" target="rROXHpLpStxra00sK2MU-4">
          <mxGeometry relative="1" as="geometry" />
        </mxCell>
        <mxCell id="rROXHpLpStxra00sK2MU-3" value="Supervisora de mercaderías" style="rounded=0;whiteSpace=wrap;html=1;" vertex="1" parent="1">
          <mxGeometry x="1010" y="280" width="170" height="60" as="geometry" />
        </mxCell>
        <mxCell id="rROXHpLpStxra00sK2MU-4" value="Mercaderistas" style="rounded=0;whiteSpace=wrap;html=1;" vertex="1" parent="1">
          <mxGeometry x="920" y="400" width="120" height="60" as="geometry" />
        </mxCell>
        <mxCell id="rROXHpLpStxra00sK2MU-5" value="Asesores comerciales" style="rounded=0;whiteSpace=wrap;html=1;" vertex="1" parent="1">
          <mxGeometry x="610" y="280" width="120" height="60" as="geometry" />
        </mxCell>
      </root>
    </mxGraphModel>
  </diagram>
</mxfile>
